<?xml version="1.0" standalone="no"?>
<!DOCTYPE svg PUBLIC "-//W3C//DTD SVG 1.1//EN" "http://www.w3.org/Graphics/SVG/1.1/DTD/svg11.dtd" >
<svg xmlns="http://www.w3.org/2000/svg" xmlns:xlink="http://www.w3.org/1999/xlink" version="1.1">
<metadata></metadata>
<defs>
<font id="kertayasaregular" horiz-adv-x="643" >
<font-face units-per-em="2048" ascent="1536" descent="-512" />
<missing-glyph horiz-adv-x="614" />
<glyph horiz-adv-x="0" />
<glyph unicode="&#xd;" horiz-adv-x="614" />
<glyph horiz-adv-x="0" />
<glyph horiz-adv-x="0" />
<glyph unicode=" "  horiz-adv-x="614" />
<glyph unicode="&#x09;" horiz-adv-x="614" />
<glyph unicode="&#xa0;" horiz-adv-x="614" />
<glyph unicode="A" horiz-adv-x="1320" d="M0 0q31 18 59 47q25 25 52.5 64t48.5 94l276 1063q6 35 8 63.5t2 52.5q0 47 -7 77t-15 46q-10 20 -23 29h107h250l418 -1403q23 -41 48 -65.5t48 -40.5q25 -18 49 -27h-426l-139 547h-365l-117 -547h-274zM422 690h297l-160 633z" />
<glyph unicode="B" horiz-adv-x="1136" d="M92 4q29 27 51 64q20 33 37 84t17 127v978q0 74 -16.5 126.5t-37.5 84.5q-23 37 -51 64h354q61 0 142.5 -5t152 -38t119.5 -104.5t49 -202.5t-30.5 -218.5t-130.5 -132.5q61 -12 117.5 -39.5t99.5 -74.5t68.5 -119t25.5 -176q0 -119 -35 -200t-102.5 -130t-163.5 -70.5 t-219 -21.5h-65.5t-117.5 2q-72 0 -159 2h-105zM446 123q111 0 181.5 21.5t112.5 61.5t57.5 94t15.5 122q0 84 -8 145.5t-35 101.5t-79 59.5t-138 19.5q-45 0 -107 -7v-618zM446 858q82 0 128.5 21.5t70 58.5t28.5 88t5 113q0 88 -15.5 143t-44 86t-71.5 42t-101 11v-563z " />
<glyph unicode="C" horiz-adv-x="1060" d="M61 754q0 182 31 331.5t105.5 255t201.5 164t320 58.5q59 0 103 -5.5t75 -11.5q37 -8 61 -14l-47 -375h-92q0 123 -35.5 201t-95.5 78q-111 0 -176.5 -63.5t-99 -160t-43 -211t-9.5 -219.5q0 -104 17.5 -224t54.5 -223.5t95.5 -171t140.5 -67.5q98 0 157.5 11.5 t94.5 27.5q39 16 59 39q-6 -31 -26.5 -64.5t-61.5 -62.5t-103.5 -47t-152.5 -18q-147 0 -256 70.5t-179.5 183t-104.5 249t-34 269.5z" />
<glyph unicode="D" horiz-adv-x="1138" d="M92 0q29 25 51 63q20 33 37 85.5t17 127.5v984q0 76 -16.5 127t-37.5 86q-23 37 -51 63h357q147 0 262.5 -48t197.5 -142.5t125 -233.5t43 -321t-48 -328t-133 -249t-199.5 -158.5t-247.5 -55.5h-357zM449 121q53 0 113.5 27.5t110.5 102.5t82.5 205t32.5 335 t-34.5 329.5t-87 192t-110.5 89t-107 21.5v-1302z" />
<glyph unicode="E" horiz-adv-x="1181" d="M92 0q29 25 51 63q20 33 37 85.5t17 127.5v981q0 76 -16.5 127.5t-37.5 85.5q-23 37 -51 64h357h452l60 -176q-23 16 -62 31q-35 12 -90 22t-139 10h-221v-594q35 0 85 6.5t97 16.5q53 8 112 22l35 -254q-16 14 -55 27q-35 10 -99.5 18.5t-174.5 8.5v-553q211 0 341 18.5 t201 40.5q82 25 119 60l-106 -238h-555h-357z" />
<glyph unicode="F" horiz-adv-x="1038" d="M92 2q31 25 53 64q20 35 37 87t17 128v974q0 76 -16.5 129.5t-37.5 88.5q-23 39 -53 63h359h458l58 -178q-23 16 -62 31q-35 12 -90 22t-141 10h-223v-585q35 0 86 6t98 16q53 8 113 23l36 -254q-16 14 -57 26q-35 10 -100.5 18.5t-175.5 8.5v-399q0 -76 16 -128.5 t37 -86.5q23 -39 53 -64h-106h-359z" />
<glyph unicode="G" horiz-adv-x="1116" d="M61 731q0 180 31 330.5t105.5 259.5t200.5 168t317 59q59 0 103 -5t73 -11q35 -8 59 -14l-45 -371h-92q0 123 -36 198.5t-95 75.5q-111 0 -174.5 -64.5t-97 -162.5t-43 -215t-9.5 -219q0 -104 17.5 -217t52.5 -207t86 -155.5t119 -61.5q61 0 91 54t30 124q0 43 -10.5 84 t-31 74.5t-51 54t-71.5 20.5q37 0 103.5 5.5t134 15.5t126 26.5t80.5 38.5q-18 -18 -30.5 -55t-21.5 -86t-13 -105.5t-4 -111.5q0 -45 3 -87t9 -77t14 -59.5t19 -36.5q-39 37 -95 37q-57 0 -127.5 -22.5t-158.5 -22.5q-147 0 -254 66.5t-176.5 173t-103.5 238.5t-34 263z " />
<glyph unicode="H" horiz-adv-x="1409" d="M92 0q29 25 51 63q20 33 37 85.5t17 127.5v981q0 76 -16.5 127.5t-37.5 85.5q-23 37 -51 64h105h356q-31 -27 -53 -64q-20 -35 -35.5 -86t-15.5 -127v-436h512v436q0 76 -16.5 127.5t-37.5 85.5q-23 37 -53 64h107h356q-31 -27 -53 -64q-20 -35 -37 -86t-17 -127v-981 q0 -76 16.5 -128t37.5 -85q23 -39 53 -63h-107h-356q31 25 53 63q20 33 37 85.5t17 127.5v404h-512v-404q0 -76 15 -128t36 -85q23 -39 53 -63h-104h-357z" />
<glyph unicode="I" d="M92 0q29 25 51 63q20 35 37 86.5t17 126.5v977q0 76 -16.5 127.5t-37.5 85.5q-23 37 -51 64h105h354q-31 -27 -53 -64q-20 -35 -36 -86t-16 -127v-977q0 -76 15.5 -127t36.5 -86q23 -39 53 -63h-105h-354z" />
<glyph unicode="J" d="M92 -264q29 8 51 41q20 29 37 82t17 149v1249q0 74 -16.5 126.5t-37.5 84.5q-23 37 -51 64h105h249h105q-31 -27 -53 -64q-20 -33 -36 -85t-16 -126v-1259q-2 -43 -17 -77t-41 -60.5t-57.5 -46t-64.5 -33.5q-78 -33 -174 -45z" />
<glyph unicode="K" horiz-adv-x="1415" d="M92 0q29 25 51 63q20 33 37 85.5t17 127.5v984q0 76 -16.5 127t-37.5 86q-23 37 -51 63h105h356q-31 -27 -53 -63q-20 -35 -37 -86.5t-17 -126.5v-361l453 637h324q-31 0 -89.5 -48t-131 -124t-152.5 -169t-152 -183q14 -29 58.5 -116t106 -198.5t135 -234.5 t148.5 -226.5t145.5 -170t123.5 -66.5h-491l-371 829q-25 -31 -44.5 -56t-33.5 -44q-16 -23 -29 -37v-416q0 -76 16.5 -128t37.5 -85q23 -39 53 -63h-107h-354z" />
<glyph unicode="L" horiz-adv-x="1107" d="M92 2q29 25 51 64q20 33 37 85t17 128v983q0 76 -16.5 127t-37.5 86q-23 37 -51 63h105h356q-31 -27 -53 -63q-20 -35 -35.5 -86.5t-15.5 -126.5v-1141q211 0 340 17.5t200 39.5q82 25 119 60l-107 -236h-552h-357z" />
<glyph unicode="M" horiz-adv-x="1720" d="M72 -4q25 18 47 47q18 25 37.5 64.5t29.5 95.5l62 1071q-2 70 -16.5 120t-30.5 81q-20 37 -43 59h227h55l406 -770l358 770h125h236q-25 -27 -45 -64q-16 -33 -30.5 -85t-14.5 -125l59 -1070q10 -53 29.5 -90t38.5 -59q23 -27 47 -45h-105h-354q23 27 43 63 q16 33 30.5 84.5t14.5 126.5l-53 1012l-426 -1020l-430 955l-56 -961q2 -72 16.5 -121t30.5 -80q20 -37 43 -59h-227h-104z" />
<glyph unicode="N" horiz-adv-x="1290" d="M92 2q29 25 51 64q20 33 37 85t17 128v983q0 74 -16.5 126t-37.5 85q-23 37 -51 63h281l596 -1042v768q0 74 -16.5 126t-37.5 85q-23 37 -51 63h334q-31 -27 -53 -63q-20 -33 -35.5 -85.5t-15.5 -125.5v-983q0 -76 15 -128.5t36 -84.5q23 -39 53 -64h-283l-593 1049v-772 q0 -76 15 -128.5t36 -84.5q23 -39 53 -64h-334z" />
<glyph unicode="O" horiz-adv-x="1406" d="M61 784q0 133 33 269.5t107.5 246t198 179t305.5 69.5t305 -69.5t197.5 -179t106.5 -245.5t32 -270q0 -133 -35 -274t-111 -258t-198.5 -192.5t-296.5 -75.5q-182 0 -306.5 75.5t-199 192.5t-106.5 258t-32 274zM326 784q0 -109 22.5 -227.5t69.5 -219.5t118 -167 t169 -66q106 0 178.5 66t116.5 167t62.5 220t18.5 227q0 109 -20.5 222.5t-65.5 208t-116.5 153.5t-173.5 59q-104 0 -177 -59t-117 -153.5t-64.5 -208t-20.5 -222.5z" />
<glyph unicode="P" horiz-adv-x="1103" d="M92 -6q29 25 51 63q20 35 37 87.5t17 127.5v985q0 76 -16.5 128.5t-37.5 87.5q-23 39 -51 63h357h274q37 0 92 -37t108.5 -106.5t91.5 -166.5t38 -218q0 -172 -54.5 -291t-140.5 -192.5t-193.5 -105.5t-215.5 -32v-115q0 -76 15 -128t36 -87q23 -39 53 -63h-461zM449 512 q100 0 167.5 36t106.5 97.5t55.5 143t16.5 174.5q0 127 -31 215t-80 142t-111.5 78.5t-123.5 24.5v-911z" />
<glyph unicode="Q" horiz-adv-x="1406" d="M61 786q0 133 33 268.5t107.5 245t197.5 179t303 69.5q182 0 305 -69.5t198 -179t106.5 -244.5t31.5 -269q0 -86 -14 -177t-45 -178t-78.5 -166t-115.5 -138q59 -63 139 -110.5t207 -47.5q-2 0 -12.5 -26.5t-32 -58t-56.5 -57.5t-88 -26q-66 0 -115 18.5t-88.5 49.5 t-70.5 72t-55 84q-96 -37 -216 -37q-182 0 -305 74.5t-197.5 191.5t-106.5 258t-32 274zM324 786q0 -68 9 -142.5t27.5 -146t47 -138t65.5 -117.5q25 70 83 112.5t142 42.5q92 0 153.5 -35.5t113.5 -89.5q31 53 53 117t36.5 131.5t20.5 135t6 130.5q0 109 -20.5 222.5 t-65.5 207t-118 152.5t-175 59q-104 0 -176.5 -59t-116.5 -152.5t-64.5 -207t-20.5 -222.5zM524 182q37 -35 81 -55.5t97 -20.5q41 0 78 11.5t70 32.5q-37 66 -79 110.5t-105 44.5q-66 0 -92.5 -32.5t-49.5 -90.5z" />
<glyph unicode="R" horiz-adv-x="1177" d="M92 -2q29 27 51 63q20 33 37 84.5t17 126.5v990q0 74 -16.5 126t-37.5 85q-23 37 -51 63h352h273q35 0 90 -28.5t107.5 -87t90 -146.5t37.5 -207q0 -111 -31.5 -210t-81.5 -174t-113.5 -118t-127.5 -43q37 -59 97.5 -99t117.5 -65q68 -29 139 -45l-4 -24q-2 -10 -2 -25.5 v-34.5q0 -57 15.5 -131.5t64.5 -130.5q-94 0 -172 37t-141.5 93.5t-111.5 123t-82 127t-53.5 105.5t-23.5 57q-29 -2 -51 -2h-37v-236q0 -76 15.5 -127t36.5 -84q23 -37 53 -63h-457zM444 629q100 0 167 27.5t106 78.5t54 124t15 163q0 125 -30.5 204t-78.5 123t-109.5 60 t-123.5 16v-796z" />
<glyph unicode="S" horiz-adv-x="944" d="M139 1253q0 135 89 217.5t239 92.5q39 0 81 -6.5t77 -14.5q41 -8 80 -20v-226q-23 45 -40.5 74t-40 46.5t-55 24.5t-86.5 7q-10 0 -28.5 -7t-35 -21.5t-28.5 -37t-12 -55.5q0 -88 31.5 -169t79 -160.5t102.5 -160.5t102 -168t79 -182.5t32 -201.5q0 -84 -40 -142.5 t-95.5 -94.5t-114.5 -52t-98 -16q-55 0 -102.5 15t-82.5 34q-41 23 -73 49v207q55 -72 109 -115t98 -43q49 0 94 31.5t45 105.5q0 86 -30 164t-75 151.5t-98 147.5t-98 155t-75 172t-30 199z" />
<glyph unicode="T" horiz-adv-x="1382" d="M61 1366l60 176h338h231h234h338l59 -176q0 2 -19.5 12.5t-72.5 21.5t-145.5 20.5t-237.5 9.5q-12 -33 -20.5 -73t-8.5 -93v-1028q4 -66 21.5 -111t35.5 -74q23 -35 48 -55h-105h-358q31 25 53 63q20 35 36.5 87.5t16.5 127.5v990q0 53 -9 93t-21 73q-147 0 -240.5 -9.5 t-145 -20.5t-70 -21.5t-18.5 -12.5z" />
<glyph unicode="U" horiz-adv-x="1253" d="M92 1536h105h356q-31 -25 -53 -63q-20 -35 -35.5 -87.5t-15.5 -128.5v-909q0 -59 10 -111.5t36.5 -90t73.5 -60.5t121 -23q72 0 119 21.5t74.5 59.5t38 90.5t10.5 113.5v909q0 76 -16.5 128.5t-36.5 87.5q-23 39 -52 63h230h104q-31 -25 -53 -63q-20 -35 -35.5 -87.5 t-15.5 -128.5v-788q0 -84 -9.5 -170t-45 -154.5t-109.5 -112.5t-203 -44q-125 0 -217 23.5t-153.5 79.5t-92 148.5t-30.5 229.5v788q0 76 -16.5 128.5t-37.5 87.5q-23 39 -51 63z" />
<glyph unicode="V" horiz-adv-x="1341" d="M0 1534h401l373 -1346l320 1346h247q-29 -18 -57 -45q-25 -23 -51.5 -60.5t-44.5 -91.5l-8 -26q-2 -6 -4 -15.5t-11.5 -41t-26 -96t-46 -178.5t-76.5 -289t-115 -427q-12 -74 -12 -121t6 -75.5t16 -44.5q8 -20 23 -27h-356l-431 1401q-23 41 -48 67.5t-48 42.5 q-25 18 -51 27z" />
<glyph unicode="W" horiz-adv-x="1955" d="M0 1536h399l363 -1321l164 864l-86 342q-45 66 -88 92q-23 14 -45 23h104h295h154q-25 -12 -43 -41q-16 -25 -28.5 -70t-12.5 -116q0 -29 2 -60.5t8 -68.5l45 -209l166 -754l311 1315h143h105q-29 -18 -58 -45q-25 -23 -51 -59.5t-47 -90.5l-6 -26q2 4 3 8t3 8l-20 -72 q2 6 3 11.5t3 11.5l-270 -1010q-12 -74 -13 -121q0 -47 6.5 -74.5t16.5 -43.5q8 -20 22 -29h-104h-250l-199 801l-125 -570q-2 -16 -3 -31.5t-1 -29.5q0 -53 9.5 -86t19.5 -51q12 -23 31 -33h-105h-252l-424 1401q-23 41 -48 66.5t-48 41.5q-25 18 -49 27z" />
<glyph unicode="X" horiz-adv-x="1079" d="M20 0q33 23 70 57q31 29 69 75t79 112l208 456l-219 598q-33 66 -65.5 110t-61.5 73q-33 33 -63 55h104h389q-20 -10 -36 -31q-14 -16 -25.5 -43.5t-11.5 -66.5q0 -27 6 -54l123 -335l155 340q8 23 10.5 44t2.5 37q0 29 -6.5 48.5t-12.5 33.5q-8 16 -18 27h114h228 q-37 -27 -74 -63q-33 -33 -72 -82.5t-79 -118.5l-193 -418l217 -592q31 -66 65.5 -115t65.5 -81q35 -37 70 -66h-105h-395q20 12 37 35q14 18 25.5 46t11.5 69v24t-4 27l-127 348l-123 -273l-43 -92q-14 -45 -14 -86q0 -27 5 -44t11 -29q8 -14 16 -25h-104h-230z" />
<glyph unicode="Y" horiz-adv-x="1091" d="M-20 1536h301q-8 -2 -17 -10q-14 -14 -14 -53q0 -25 8 -56l223 -534l219 520q10 47 11 70q0 27 -9 47q-4 8 -6 16h310h106q-33 -25 -70 -61q-31 -33 -70.5 -85.5t-80.5 -129.5l-221 -527v-457q0 -76 15 -128t36 -87q23 -39 53 -63h-461q31 25 54 63q20 35 36.5 87.5 t16.5 127.5v457l-230 543q-37 68 -73.5 116t-67.5 81q-37 37 -69 63z" />
<glyph unicode="Z" horiz-adv-x="1056" d="M41 6l670 1411q-193 -4 -309.5 -21.5t-182.5 -39.5q-76 -25 -108 -56l106 236h549h250l-670 -1413q193 4 309.5 21.5t182.5 39.5q76 25 108 58l-106 -236h-549h-250z" />
<glyph unicode="a" horiz-adv-x="1185" d="M0 0q12 0 27.5 11.5t31 27.5t27.5 32.5t18 26.5q51 78 74 170t45 181l148 552q12 70 12 121q0 45 -7 73t-16 44q-10 18 -22 29h104h254l344 -1133q23 -41 47.5 -66.5t47.5 -41.5q25 -18 51 -27h-404l-75 279h-394l-65 -279h-144h-104zM346 422h324l-174 645z" />
<glyph unicode="b" horiz-adv-x="1136" d="M92 0q29 25 51 63q20 35 37 86.5t17 126.5v713q0 74 -16.5 126t-37.5 85q-23 37 -51 64h354q35 0 74 2t82 2q55 0 110.5 -9.5t99.5 -40t70.5 -88t26.5 -153.5q0 -102 -17.5 -173t-72.5 -106q49 -12 93 -35.5t76 -65.5t51.5 -105.5t19.5 -151.5q0 -109 -30 -175.5 t-85 -105.5t-136 -52t-183 -13q-84 0 -179 6h-354zM446 121q111 0 181.5 9t112.5 33.5t57.5 66.5t15.5 108q0 78 -7 130t-28.5 83t-62.5 43t-109 12q-33 0 -72.5 -2t-87.5 -6v-477zM446 713q82 0 128.5 14t70 42t28.5 70t5 99q0 74 -9.5 117t-27.5 64.5t-49 27.5t-74 6h-72 v-440z" />
<glyph unicode="c" horiz-adv-x="1050" d="M61 573q0 180 30 311.5t104.5 215.5t200 125t315.5 41q59 0 103 -5.5t73 -11.5q35 -8 59 -16l-45 -369h-92q0 61 -9 114.5t-26.5 93.5t-41 62.5t-52.5 22.5q-111 0 -174.5 -48t-97 -127t-43 -178t-9.5 -202q0 -102 18.5 -193.5t55.5 -160t93.5 -108.5t131.5 -40 q92 0 152.5 11.5t95.5 25.5q41 16 66 37q-35 -55 -86 -96q-43 -37 -106.5 -66.5t-149.5 -29.5q-145 0 -252 43t-176.5 121.5t-103.5 187t-34 239.5z" />
<glyph unicode="d" horiz-adv-x="1138" d="M92 0q29 25 51 63q20 35 37 87.5t17 128.5v714q0 76 -16.5 127t-37.5 86q-23 37 -51 64h357q147 0 262.5 -32t197.5 -105.5t125 -196.5t43 -305t-48 -303t-133 -194t-199.5 -103.5t-247.5 -30.5h-357zM449 123h55q49 0 100 12t92 62.5t66.5 152t25.5 281.5 q0 184 -28.5 289.5t-72.5 157.5t-97 65.5t-101 13.5h-40v-1034z" />
<glyph unicode="e" horiz-adv-x="1181" d="M92 0q29 25 51 63q20 33 37 85.5t17 127.5v713q0 76 -16.5 128t-37.5 87q-23 39 -51 64h357h452l60 -176q-23 16 -62 30q-35 12 -90 22.5t-139 10.5h-221v-450q35 0 85 6t97 16q53 10 112 25l35 -254q-16 14 -55 26q-35 10 -99.5 18.5t-174.5 8.5v-432q211 0 341 18.5 t201 40.5q82 25 119 60l-106 -238h-555h-357z" />
<glyph unicode="f" horiz-adv-x="1038" d="M92 2q31 25 53 64q20 35 37 87t17 128v710q0 76 -16.5 129.5t-37.5 87.5q-23 39 -53 64h359h458l58 -178q-23 16 -62 30q-35 12 -90 22.5t-141 10.5h-223v-444q35 0 86 6t98 16q53 10 113 25l36 -256q-16 14 -57 26q-35 10 -100.5 18.5t-175.5 8.5v-276q0 -76 16 -128.5 t37 -86.5q23 -39 53 -64h-106h-359z" />
<glyph unicode="g" horiz-adv-x="1116" d="M61 586q0 180 31 311t105.5 214t200.5 123t317 40q59 0 103 -5t73 -12q35 -8 59 -16l-45 -371h-92q0 123 -36 200t-95 77q-111 0 -174.5 -45t-97 -119t-43 -170t-9.5 -201q0 -102 17.5 -192t52.5 -156.5t86 -105.5t119 -39q61 0 91 54t30 124q0 43 -10.5 84t-31 74.5 t-51 54t-71.5 20.5q37 0 103.5 5.5t134 15.5t126 26.5t80.5 38.5q-18 -18 -30.5 -55t-21.5 -86t-13 -105.5t-4 -111.5q0 -45 3 -87t9 -77t14 -59.5t19 -36.5q-37 37 -92 37q-29 0 -62 -7.5t-68.5 -15.5t-74.5 -15t-82 -7q-147 0 -254 44t-177.5 123t-104.5 188.5t-34 240.5z " />
<glyph unicode="h" horiz-adv-x="1409" d="M92 0q29 25 51 63q20 33 37 85.5t17 127.5v713q0 76 -16.5 128t-37.5 87q-23 39 -51 64h461q-31 -25 -53 -64q-20 -35 -35.5 -87t-15.5 -128v-289h512v289q0 76 -16.5 128t-37.5 87q-23 39 -53 64h463q-31 -25 -53 -64q-20 -35 -37 -87t-17 -128v-713q0 -76 16.5 -128 t37.5 -85q23 -39 53 -63h-463q31 25 53 63q20 33 37 85.5t17 127.5v283h-512v-283q0 -76 15 -128t36 -85q23 -39 53 -63h-461z" />
<glyph unicode="i" d="M92 0q29 27 51 63q20 33 37 84.5t17 126.5v715q0 76 -16.5 127t-37.5 86q-23 37 -51 64h105h354q-31 -27 -53 -64q-20 -35 -36 -86t-16 -127v-715q0 -76 15.5 -127t36.5 -84q23 -37 53 -63h-105h-354z" />
<glyph unicode="j" d="M92 -264q29 8 51 41q20 29 37 82t17 149v983q0 74 -16.5 126t-37.5 87q-23 39 -51 64h354h105q-31 -25 -53 -64q-20 -35 -36 -87t-16 -126v-993q-2 -43 -17 -77t-41 -60.5t-57.5 -46t-64.5 -33.5q-78 -33 -174 -45z" />
<glyph unicode="k" horiz-adv-x="1411" d="M92 0q29 25 51 63q20 33 37 85.5t17 127.5v711q0 76 -16.5 127t-37.5 86q-23 37 -51 64h105h356q-31 -27 -53 -64q-20 -35 -37 -86t-17 -127v-211l453 488h324q-31 0 -86.5 -38t-125 -96.5t-146.5 -131t-148 -142.5q20 -37 65 -113.5t104.5 -172t129 -197t140.5 -184.5 t137.5 -136t117.5 -53h-493l-361 698q-25 -27 -45 -46t-35 -36l-31 -30v-310q0 -76 16.5 -128t37.5 -85q23 -39 53 -63h-107h-354z" />
<glyph unicode="l" horiz-adv-x="1107" d="M92 2q29 25 51 64q20 33 37 85t17 128v710q0 76 -16.5 128t-37.5 87q-23 39 -51 64h105h252h104q-31 -25 -53 -64q-20 -35 -35.5 -87t-15.5 -128v-868q211 0 340 17.5t200 39.5q82 25 119 60l-107 -236h-552h-252h-105z" />
<glyph unicode="m" horiz-adv-x="1681" d="M72 0q25 18 47 47q18 25 36.5 62.5t28.5 91.5l2 24l2 51l39 740q-4 66 -17 114t-30 76q-18 35 -41 58h279l405 -781l359 781h362q-25 -27 -45 -64q-16 -35 -30.5 -86t-14.5 -127l41 -794q10 -53 29.5 -89t38.5 -59q23 -27 47 -45h-459q25 25 45 63q16 33 30.5 85.5 t14.5 127.5l-39 736l-424 -1030l-428 966l-37 -672q0 -76 14.5 -127t30.5 -86q20 -39 45 -63h-331z" />
<glyph unicode="n" horiz-adv-x="1290" d="M92 0q29 25 51 63q20 35 37 86.5t17 126.5v713q0 76 -16.5 127t-37.5 86q-23 37 -51 64h105h125h51l596 -916v639q0 76 -16.5 127t-37.5 86q-23 37 -51 64h105h125h104q-31 -27 -53 -64q-20 -35 -35.5 -86t-15.5 -127v-713q0 -76 15 -127t36 -86q23 -39 53 -63h-104h-125 h-54l-593 924v-648q0 -76 15 -127t36 -86q23 -39 53 -63h-104h-125h-105z" />
<glyph unicode="o" horiz-adv-x="1406" d="M61 627q0 133 50.5 249.5t137.5 203.5t205 137.5t251 50.5t249.5 -50.5t203.5 -137.5t137.5 -203.5t50.5 -249.5t-50.5 -250t-137.5 -205t-203.5 -138t-249.5 -50t-251 50t-205 138t-137.5 205t-50.5 250zM326 627q0 -109 29.5 -204t80.5 -166t120 -112t149 -41 q78 0 146.5 41t119.5 112t80.5 166t29.5 204q0 106 -29.5 201.5t-80.5 166t-120 111.5t-146 41q-80 0 -149 -41t-120 -111.5t-80.5 -166t-29.5 -201.5z" />
<glyph unicode="p" horiz-adv-x="1105" d="M92 -6q29 25 51 63q20 35 37 87.5t17 127.5v715q0 76 -16.5 127t-37.5 86q-23 37 -51 64h105h252h276q35 0 91 -15.5t109.5 -58.5t91.5 -119t38 -197q0 -106 -29 -189t-75 -141.5t-105.5 -93t-120.5 -42.5q-25 -4 -63.5 -8.5t-79.5 -7.5t-77 -4t-56 -1v-115 q0 -76 15 -128t36 -87q23 -39 53 -63h-104h-252h-105zM449 512q102 0 168.5 15.5t106.5 52t55.5 98t15.5 151.5q0 127 -31 194t-80 95.5t-111.5 31.5t-123.5 3v-641z" />
<glyph unicode="q" horiz-adv-x="1406" d="M61 631q0 133 50.5 249.5t137.5 203.5t203.5 137.5t249.5 50.5t250 -50.5t204 -137.5t137 -203.5t50 -249.5q0 -168 -77.5 -307.5t-206.5 -225.5q55 -53 129 -89t184 -36q-2 0 -11 -26.5t-30.5 -58t-57.5 -57.5t-87 -26q-61 0 -110.5 16.5t-87.5 45.5t-67.5 65.5 t-54.5 77.5q-76 -20 -164 -20q-133 0 -249.5 50t-203.5 137t-137.5 204t-50.5 250zM324 631q0 -104 26.5 -193.5t73.5 -158.5q29 55 83 88.5t128 33.5q55 0 100 -14t81 -37.5t66.5 -55.5t59.5 -65q63 72 101 175.5t38 226.5q0 106 -29.5 201.5t-80.5 166t-121 111.5t-148 41 t-147.5 -41t-120.5 -111.5t-80.5 -166t-29.5 -201.5zM473 217q47 -51 105 -78.5t124 -27.5q45 0 99 16q-20 37 -41 69.5t-44.5 58.5t-51 40t-62.5 14q-55 0 -81.5 -24.5t-47.5 -67.5z" />
<glyph unicode="r" horiz-adv-x="1177" d="M92 -2q29 27 51 63q20 33 37 84.5t17 126.5v717q0 74 -16.5 126t-37.5 85q-23 37 -51 64h352h273q35 0 90 -15.5t107.5 -58.5t90 -118t37.5 -193q0 -109 -31.5 -197t-81.5 -149.5t-113.5 -95.5t-127.5 -34q41 -66 105.5 -86t124.5 -20q27 0 49 2t39 6q20 4 36 8l-4 -24 q-2 -10 -2 -25.5v-34.5q0 -57 15.5 -131.5t64.5 -130.5q-94 0 -172 29t-140.5 72t-111.5 95t-83 99t-53.5 83t-23.5 46q-29 -2 -51 -3t-37 -1v-115q0 -76 15.5 -127t36.5 -84q23 -37 53 -63h-105h-352zM444 510q100 0 167 16.5t106 55.5t54 100t15 152q0 125 -30.5 190.5 t-78.5 94t-109.5 31.5t-123.5 3v-643z" />
<glyph unicode="s" horiz-adv-x="903" d="M139 989q0 68 20.5 125t59.5 100t96 67t131 24q39 0 81 -7.5t77 -15.5q41 -8 80 -20v-209q-33 74 -86 112.5t-135 38.5q-23 0 -53.5 -38t-30.5 -101q0 -88 28.5 -150.5t71.5 -112.5t92.5 -97.5t92.5 -104.5t71.5 -133t28.5 -182q0 -84 -37 -143.5t-88 -97.5t-107.5 -55.5 t-95.5 -17.5q-55 0 -102 15.5t-82 33.5q-41 23 -74 50v198q27 -35 51.5 -64.5t48 -50t49 -31.5t58.5 -11q61 0 90 39.5t29 113.5q0 86 -26.5 144.5t-67.5 102.5t-88.5 84t-88 92t-67.5 123t-27 179z" />
<glyph unicode="t" horiz-adv-x="1155" d="M61 1096l60 168h223h234h233h223l60 -168q0 4 -17.5 14t-58.5 21.5t-110.5 20.5t-174.5 9q-12 -33 -20 -78t-8 -98v-711q0 -76 16 -128t37 -87q23 -39 53 -63h-106h-361q31 25 53 63q20 35 37 87.5t17 127.5v711q0 53 -8.5 98t-20.5 78q-104 0 -174 -9t-112 -20.5 t-58.5 -21.5t-16.5 -14z" />
<glyph unicode="u" horiz-adv-x="1253" d="M92 1268h105h356q-31 -25 -53 -64q-20 -35 -35.5 -87t-15.5 -128v-661q0 -59 10 -111.5t36.5 -90.5t73.5 -60.5t121 -22.5q72 0 119 21.5t74.5 59.5t38 90t10.5 114v661q0 76 -16.5 128t-36.5 87q-23 39 -52 64h230h104q-31 -25 -53 -64q-20 -35 -35.5 -87t-15.5 -128 v-540q0 -84 -9.5 -170t-45 -155t-109.5 -113t-203 -44q-125 0 -217 23.5t-153.5 80t-92 148.5t-30.5 230v540q0 76 -16.5 128t-37.5 87q-23 39 -51 64z" />
<glyph unicode="v" horiz-adv-x="1179" d="M0 1264h104h297l285 -1069l246 1069h143h2h103q-12 0 -27.5 -11.5t-30 -28t-27 -32.5t-18.5 -25q-10 -14 -32.5 -81.5t-48 -150.5t-48 -166t-35.5 -128q-27 -94 -56.5 -188.5t-45.5 -190.5q-12 -71 -12 -118q0 -10 1 -19q3 -51 13 -80q10 -35 31 -49h-105h-100h-152 l-342 1134q-23 41 -47 66t-47 41q-25 18 -51 27z" />
<glyph unicode="w" horiz-adv-x="1798" d="M0 1266h399l283 -1067l160 684l-72 247q-23 41 -48.5 67t-47.5 42q-25 18 -49 27h104h295h152q-27 -8 -48 -29q-18 -16 -32.5 -49t-14.5 -86q0 -51 19 -121l207 -782l245 1067h142l104 -11q-29 -16 -57 -41q-25 -23 -51.5 -57.5t-47.5 -87.5l-8 -33q4 16 8 25l-18 -72 q2 8 3 16.5t3 16.5l-200 -758q-6 -35 -8.5 -63.5t-2.5 -50.5q0 -47 6.5 -76t16.5 -45q8 -20 22 -29h-104h-250l-199 653l-104 -389q-6 -35 -8 -64.5t-2 -52.5q0 -47 6 -74.5t14 -43.5q8 -20 23 -29h-105h-250l-340 1130q-23 41 -47 67t-47 42q-25 18 -51 27z" />
<glyph unicode="x" horiz-adv-x="1081" d="M20 0q35 18 72 49q33 27 72 66t78 96l204 364l-204 463q-33 63 -68 106.5t-64.5 70t-50 39t-22.5 14.5h106h387q-16 -10 -26 -29q-10 -16 -18.5 -39.5t-8.5 -58.5q0 -23 5 -56.5t22 -68.5l82 -191l112 209q23 47 31 84t8 66q0 23 -4 38t-8 25q-6 12 -10 21h114h230 l-25 -16q-24 -17 -62 -50t-84 -84t-85 -121l-162 -297l195 -438q31 -66 68.5 -115t72.5 -81q39 -37 80 -66h-105h-393q14 10 27 31q10 16 19 41.5t9 60.5q0 47 -20 109l-92 209l-117 -211q-29 -55 -37 -96.5t-8 -69.5q0 -20 2 -32.5t6 -23.5q4 -10 8 -18h-104h-232z" />
<glyph unicode="y" horiz-adv-x="1093" d="M-20 1266h227h74q-4 0 -9 -6q-6 -10 -6 -31q0 -23 11.5 -64t46.5 -110l159 -310l150 291q47 88 57 140.5t12 72.5q0 4 -1 7.5t-1 5.5v4h58h250h106q-39 -18 -78 -54q-35 -29 -75.5 -75.5t-81.5 -112.5l-207 -393v-355q0 -76 15 -128t36 -87q23 -39 53 -63h-229h-232 q31 25 54 63q20 35 36.5 87.5t16.5 127.5v355l-207 391q-37 63 -79 108.5t-77 75.5q-41 35 -79 60z" />
<glyph unicode="z" horiz-adv-x="1056" d="M41 0l657 1145q-188 -4 -302.5 -21.5t-178.5 -40.5q-74 -25 -106 -55l106 236h549h250l-658 -1145q186 4 302 21.5t180 39.5q74 25 106 56l-106 -236h-549h-250z" />
<glyph unicode="&#x2000;" horiz-adv-x="781" />
<glyph unicode="&#x2001;" horiz-adv-x="1563" />
<glyph unicode="&#x2002;" horiz-adv-x="781" />
<glyph unicode="&#x2003;" horiz-adv-x="1563" />
<glyph unicode="&#x2004;" horiz-adv-x="521" />
<glyph unicode="&#x2005;" horiz-adv-x="390" />
<glyph unicode="&#x2006;" horiz-adv-x="260" />
<glyph unicode="&#x2007;" horiz-adv-x="260" />
<glyph unicode="&#x2008;" horiz-adv-x="195" />
<glyph unicode="&#x2009;" horiz-adv-x="312" />
<glyph unicode="&#x200a;" horiz-adv-x="86" />
<glyph unicode="&#x202f;" horiz-adv-x="312" />
<glyph unicode="&#x205f;" horiz-adv-x="390" />
<glyph unicode="&#x25fc;" horiz-adv-x="1269" d="M0 0v1270h1270v-1270h-1270z" />
</font>
</defs>
</svg>
